<svg width="1200" height="900" viewBox="0 0 1200 900" fill="none" xmlns="http://www.w3.org/2000/svg" aria-hidden="true">
  <defs>
    <filter id="blurSoft" x="-20%" y="-20%" width="140%" height="140%">
      <feGaussianBlur stdDeviation="18" />
    </filter>
    <filter id="blurMedium" x="-20%" y="-20%" width="140%" height="140%">
      <feGaussianBlur stdDeviation="8" />
    </filter>
    <linearGradient id="petalA" x1="0" y1="0" x2="1" y2="1">
      <stop offset="0%" stop-color="#f3f9ff" stop-opacity="0.98"/>
      <stop offset="100%" stop-color="#b8d2f1" stop-opacity="0.7"/>
    </linearGradient>
    <linearGradient id="petalB" x1="1" y1="0" x2="0" y2="1">
      <stop offset="0%" stop-color="#c6ddf6" stop-opacity="0.9"/>
      <stop offset="100%" stop-color="#78a4d6" stop-opacity="0.82"/>
    </linearGradient>
    <radialGradient id="wash" cx="50%" cy="50%" r="50%">
      <stop offset="0%" stop-color="#f8fbff" stop-opacity="0.96"/>
      <stop offset="55%" stop-color="#bfd7f0" stop-opacity="0.24"/>
      <stop offset="100%" stop-color="#bfd7f0" stop-opacity="0"/>
    </radialGradient>
  </defs>

  <g filter="url(#blurSoft)" opacity="0.9">
    <circle cx="184" cy="176" r="120" fill="url(#wash)"/>
    <circle cx="1026" cy="156" r="150" fill="url(#wash)"/>
    <circle cx="1000" cy="742" r="170" fill="url(#wash)"/>
    <circle cx="248" cy="760" r="150" fill="url(#wash)"/>
  </g>

  <g filter="url(#blurMedium)" opacity="0.7">
    <path d="M198 144C176 116 170 84 182 54C190 37 209 28 225 36C240 44 246 67 244 88C242 108 233 128 222 147C211 165 203 173 198 144Z" fill="url(#petalA)"/>
    <path d="M150 182C126 166 108 141 107 111C106 90 119 72 139 67C158 63 178 76 190 95C202 114 205 138 204 161C203 184 190 202 150 182Z" fill="url(#petalB)"/>
    <path d="M219 197C203 171 200 141 206 112C212 83 233 65 258 69C285 74 301 97 301 126C301 155 292 181 276 205C259 230 237 229 219 197Z" fill="url(#petalA)"/>
    <path d="M112 221C89 202 74 176 76 146C78 117 96 101 121 101C147 101 166 120 172 148C177 174 173 205 163 226C154 246 138 247 112 221Z" fill="url(#petalA)"/>

    <path d="M980 120C958 92 952 60 964 30C972 13 991 4 1007 12C1022 20 1028 43 1026 64C1024 84 1015 104 1004 123C993 141 985 149 980 120Z" fill="url(#petalA)"/>
    <path d="M932 158C908 142 890 117 889 87C888 66 901 48 921 43C940 39 960 52 972 71C984 90 987 114 986 137C985 160 972 178 932 158Z" fill="url(#petalB)"/>
    <path d="M1001 174C985 148 982 118 988 89C994 60 1015 42 1040 46C1067 51 1083 74 1083 103C1083 132 1074 158 1058 182C1041 207 1019 206 1001 174Z" fill="url(#petalA)"/>
    <path d="M900 198C877 179 862 153 864 123C866 94 884 78 909 78C935 78 954 97 960 125C965 151 961 182 951 203C942 223 926 224 900 198Z" fill="url(#petalA)"/>

    <path d="M966 772C944 744 938 712 950 682C958 665 977 656 993 664C1008 672 1014 695 1012 716C1010 736 1001 756 990 775C979 793 971 801 966 772Z" fill="url(#petalA)"/>
    <path d="M918 810C894 794 876 769 875 739C874 718 887 700 907 695C926 691 946 704 958 723C970 742 973 766 972 789C971 812 958 830 918 810Z" fill="url(#petalB)"/>
    <path d="M987 826C971 800 968 770 974 741C980 712 1001 694 1026 698C1053 703 1069 726 1069 755C1069 784 1060 810 1044 834C1027 859 1005 858 987 826Z" fill="url(#petalA)"/>

    <path d="M196 758C174 730 168 698 180 668C188 651 207 642 223 650C238 658 244 681 242 702C240 722 231 742 220 761C209 779 201 787 196 758Z" fill="url(#petalA)"/>
    <path d="M148 796C124 780 106 755 105 725C104 704 117 686 137 681C156 677 176 690 188 709C200 728 203 752 202 775C201 798 188 816 148 796Z" fill="url(#petalB)"/>
    <path d="M217 812C201 786 198 756 204 727C210 698 231 680 256 684C283 689 299 712 299 741C299 770 290 796 274 820C257 845 235 844 217 812Z" fill="url(#petalA)"/>
  </g>
</svg>
